<svg width="181" height="40" viewBox="0 0 181 40" fill="none" xmlns="http://www.w3.org/2000/svg">
<path d="M56.9661 12.7543L57.0501 29.5061L53.6901 29.5234L53.6355 18.6276L49.2022 29.5466L46.6582 29.5597L42.0917 18.6872L42.1463 29.583L38.7863 29.6004L38.7023 12.8486L42.5183 12.8289L47.9087 25.2572L53.1741 12.7739L56.9661 12.7543ZM70.6879 12.6834L70.7014 15.3954L66.2375 15.4185L66.3079 29.4583L62.9479 29.4756L62.8776 15.4358L58.4136 15.4588L58.4 12.7469L70.6879 12.6834ZM90.4032 12.5816L90.4871 29.3334L87.1272 29.3508L87.0726 18.4549L82.6392 29.374L80.0953 29.3871L75.5287 18.5145L75.5833 29.4104L72.2234 29.4277L72.1394 12.6759L75.9553 12.6562L81.3457 25.0846L86.6112 12.6012L90.4032 12.5816ZM109.686 17.6662C109.69 18.5621 109.478 19.4032 109.05 20.1895C108.638 20.9756 107.977 21.611 107.068 22.0957C106.174 22.5804 105.039 22.8262 103.663 22.8333L100.855 22.8478L100.888 29.2797L97.5277 29.2971L97.4437 12.5453L103.612 12.5134C104.908 12.5068 106.013 12.7251 106.927 13.1683C107.841 13.6116 108.524 14.2241 108.976 15.0058C109.444 15.7874 109.681 16.6742 109.686 17.6662ZM103.506 20.1221C104.434 20.1173 105.121 19.9058 105.567 19.4874C106.012 19.0531 106.233 18.452 106.23 17.684C106.221 16.052 105.305 15.2407 103.481 15.2502L100.817 15.2639L100.842 20.1358L103.506 20.1221ZM114.433 17.9776C114.861 17.2714 115.418 16.7165 116.104 16.313C116.806 15.9094 117.605 15.7052 118.501 15.7006L118.519 19.2286L117.631 19.2332C116.575 19.2386 115.776 19.4907 115.235 19.9895C114.709 20.4883 114.45 21.3536 114.456 22.5856L114.489 29.2095L111.129 29.2269L111.062 15.931L114.422 15.9137L114.433 17.9776ZM125.737 29.3674C124.457 29.374 123.304 29.1 122.277 28.5453C121.25 27.9746 120.438 27.1708 119.841 26.1338C119.26 25.0968 118.966 23.8983 118.959 22.5383C118.952 21.1784 119.242 19.9768 119.829 18.9338C120.432 17.8907 121.251 17.0864 122.289 16.5211C123.326 15.9397 124.484 15.6457 125.764 15.6391C127.044 15.6325 128.206 15.9145 129.249 16.4851C130.291 17.0398 131.111 17.8355 131.709 18.8725C132.322 19.9093 132.632 21.1077 132.639 22.4677C132.645 23.8277 132.339 25.0293 131.721 26.0725C131.118 27.1156 130.29 27.9279 129.237 28.5094C128.2 29.0747 127.033 29.3607 125.737 29.3674ZM125.722 26.4395C126.33 26.4363 126.898 26.2894 127.424 25.9987C127.967 25.6919 128.396 25.2416 128.713 24.648C129.031 24.0544 129.187 23.3335 129.183 22.4856C129.176 21.2216 128.835 20.2553 128.16 19.5868C127.501 18.9022 126.691 18.5624 125.731 18.5673C124.771 18.5723 123.965 18.9204 123.312 19.6118C122.676 20.2871 122.36 21.2568 122.367 22.5207C122.373 23.7847 122.69 24.7591 123.317 25.4439C123.961 26.1126 124.762 26.4444 125.722 26.4395ZM135.766 14.2195C135.158 14.2226 134.653 14.0412 134.251 13.6753C133.865 13.2933 133.671 12.8223 133.668 12.2623C133.665 11.7023 133.855 11.2373 134.237 10.8673C134.635 10.4812 135.138 10.2866 135.746 10.2835C136.338 10.2804 136.827 10.4699 137.213 10.8519C137.599 11.2179 137.793 11.681 137.796 12.2409C137.799 12.8009 137.609 13.2739 137.227 13.6599C136.845 14.0299 136.358 14.2164 135.766 14.2195ZM137.508 31.2747C137.515 32.7467 137.152 33.8046 136.419 34.4483C135.703 35.1081 134.664 35.4414 133.304 35.4484L131.816 35.4561L131.802 32.6002L132.762 32.5952C133.274 32.5926 133.634 32.4867 133.84 32.2776C134.048 32.0846 134.15 31.764 134.148 31.316L134.07 15.8122L137.43 15.7949L137.508 31.2747ZM152.141 22.079C152.144 22.559 152.114 22.9912 152.052 23.3755L142.332 23.4257C142.417 24.3852 142.756 25.1355 143.351 25.6764C143.946 26.2174 144.675 26.4856 145.539 26.4812C146.787 26.4747 147.673 25.9341 148.195 24.8594L151.819 24.8407C151.442 26.1227 150.711 27.1825 149.627 28.0201C148.543 28.8417 147.209 29.2566 145.625 29.2647C144.345 29.2714 143.192 28.9973 142.165 28.4426C141.154 27.8718 140.358 27.0679 139.777 26.0309C139.212 24.9938 138.926 23.7953 138.919 22.4353C138.912 21.0593 139.186 19.8499 139.741 18.807C140.296 17.7641 141.075 16.9601 142.081 16.3949C143.086 15.8297 144.244 15.5437 145.556 15.5369C146.82 15.5304 147.95 15.7966 148.944 16.3354C149.955 16.8742 150.735 17.6462 151.284 18.6514C151.849 19.6405 152.135 20.783 152.141 22.079ZM148.657 21.137C148.636 20.2731 148.321 19.5867 147.71 19.0778C147.1 18.553 146.354 18.2928 145.474 18.2974C144.642 18.3017 143.94 18.5613 143.366 19.0763C142.809 19.5752 142.468 20.2729 142.345 21.1696L148.657 21.137ZM152.731 22.364C152.724 20.988 152.998 19.7866 153.553 18.7597C154.108 17.7168 154.88 16.9128 155.869 16.3477C156.858 15.7666 157.993 15.4727 159.273 15.4661C160.921 15.4576 162.283 15.8666 163.359 16.693C164.451 17.5034 165.185 18.6516 165.56 20.1377L161.936 20.1564C161.741 19.5814 161.411 19.1351 160.946 18.8175C160.496 18.4838 159.935 18.3187 159.263 18.3222C158.303 18.3271 157.545 18.6831 156.988 19.3899C156.432 20.0808 156.157 21.0663 156.163 22.3462C156.17 23.6102 156.454 24.5928 157.018 25.2939C157.581 25.979 158.343 26.319 159.303 26.3141C160.663 26.3071 161.548 25.6945 161.958 24.4764L165.582 24.4576C165.221 25.8995 164.499 27.0473 163.415 27.9009C162.331 28.7545 160.974 29.1855 159.342 29.1939C158.062 29.2005 156.924 28.9264 155.929 28.3715C154.935 27.8007 154.155 27.0047 153.589 25.9836C153.024 24.9465 152.738 23.74 152.731 22.364ZM170.925 18.382L170.957 24.8139C170.959 25.2619 171.065 25.5894 171.274 25.7963C171.499 25.9871 171.868 26.0812 172.38 26.0786L173.94 26.0705L173.954 28.9025L171.842 28.9134C169.01 28.928 167.587 27.5593 167.573 24.8074L167.541 18.3994L165.957 18.4076L165.943 15.6477L167.527 15.6395L167.511 12.3515L170.895 12.3341L170.911 15.622L173.887 15.6066L173.901 18.3666L170.925 18.382ZM176.859 29.0555C176.251 29.0586 175.746 28.8772 175.345 28.5113C174.959 28.1293 174.764 27.6583 174.761 27.0983C174.759 26.5383 174.948 26.0733 175.33 25.7033C175.729 25.3173 176.232 25.1227 176.84 25.1195C177.432 25.1165 177.92 25.306 178.306 25.688C178.692 26.054 178.887 26.517 178.889 27.077C178.892 27.637 178.703 28.11 178.32 28.4959C177.938 28.8659 177.451 29.0524 176.859 29.0555Z" fill="#B80007"/>
<path opacity="0.6" d="M18.6666 21.3334C18.6666 23.6934 17.64 25.8267 16 27.28C14.5866 28.56 12.72 29.3334 10.6666 29.3334C6.25329 29.3334 2.66663 25.7467 2.66663 21.3334C2.66663 17.6534 5.17329 14.5334 8.55996 13.6134C9.47996 15.9334 11.4533 17.72 13.8933 18.3867C14.56 18.5734 15.2666 18.6667 16 18.6667C16.7333 18.6667 17.44 18.5734 18.1066 18.3867C18.4666 19.2934 18.6666 20.2934 18.6666 21.3334Z" fill="#B80007"/>
<path d="M24 10.6667C24 11.7067 23.8 12.7067 23.44 13.6134C22.52 15.9334 20.5467 17.72 18.1067 18.3867C17.44 18.5734 16.7333 18.6667 16 18.6667C15.2667 18.6667 14.56 18.5734 13.8933 18.3867C11.4533 17.72 9.48 15.9334 8.56 13.6134C8.2 12.7067 8 11.7067 8 10.6667C8 6.25335 11.5867 2.66669 16 2.66669C20.4133 2.66669 24 6.25335 24 10.6667Z" fill="#B80007"/>
<path opacity="0.4" d="M29.3333 21.3334C29.3333 25.7467 25.7467 29.3334 21.3333 29.3334C19.28 29.3334 17.4133 28.56 16 27.28C17.64 25.8267 18.6667 23.6934 18.6667 21.3334C18.6667 20.2934 18.4667 19.2934 18.1067 18.3867C20.5467 17.72 22.52 15.9334 23.44 13.6134C26.8267 14.5334 29.3333 17.6534 29.3333 21.3334Z" fill="#B80007"/>
</svg>
