<svg width="24" height="24" viewBox="0 0 24 24" fill="none" xmlns="http://www.w3.org/2000/svg">
<g clip-path="url(#clip0_688_1323)">
<mask id="mask0_688_1323" style="mask-type:alpha" maskUnits="userSpaceOnUse" x="-4" y="-4" width="32" height="32">
<path d="M19.9997 18.3333H17.333C17.0678 18.3333 16.8134 18.228 16.6259 18.0404C16.4383 17.8529 16.333 17.5985 16.333 17.3333C16.333 17.0681 16.4383 16.8137 16.6259 16.6263C16.8134 16.4387 17.0678 16.3333 17.333 16.3333H19.9997C20.4417 16.3333 20.8657 16.1577 21.1782 15.8452C21.4907 15.5327 21.6663 15.1087 21.6663 14.6667V9.33332C21.6663 8.8913 21.4907 8.46738 21.1782 8.15482C20.8657 7.84226 20.4417 7.66666 19.9997 7.66666H3.99967C3.55765 7.66666 3.13373 7.84226 2.82117 8.15482C2.50861 8.46738 2.33301 8.8913 2.33301 9.33332V14.6667C2.33301 15.1087 2.50861 15.5327 2.82117 15.8452C3.13373 16.1577 3.55765 16.3333 3.99967 16.3333H6.66634C6.93155 16.3333 7.18591 16.4387 7.37345 16.6263C7.56098 16.8137 7.66634 17.0681 7.66634 17.3333C7.66634 17.5985 7.56098 17.8529 7.37345 18.0404C7.18591 18.228 6.93155 18.3333 6.66634 18.3333H3.99967C3.02721 18.3333 2.09458 17.9471 1.40695 17.2593C0.719314 16.5717 0.333008 15.6391 0.333008 14.6667V9.33332C0.333008 8.36086 0.719314 7.42823 1.40695 6.7406C2.09458 6.05296 3.02721 5.66666 3.99967 5.66666H19.9997C20.9721 5.66666 21.9047 6.05296 22.5923 6.7406C23.2801 7.42823 23.6663 8.36086 23.6663 9.33332V14.6667C23.6663 15.6391 23.2801 16.5717 22.5923 17.2593C21.9047 17.9471 20.9721 18.3333 19.9997 18.3333Z" fill="black"/>
<path d="M17.3337 7.66668C17.0695 7.66322 16.8171 7.55676 16.6303 7.36997C16.4435 7.18317 16.3371 6.93082 16.3337 6.66668V2.33334H7.66699V6.66668C7.66699 6.93189 7.56163 7.18625 7.3741 7.37378C7.18657 7.56132 6.93221 7.66668 6.66699 7.66668C6.40178 7.66668 6.14742 7.56132 5.95989 7.37378C5.77235 7.18625 5.66699 6.93189 5.66699 6.66668V2.00001C5.66699 1.55798 5.84259 1.13406 6.15515 0.821504C6.46771 0.508944 6.89163 0.333344 7.33366 0.333344H16.667C17.109 0.333344 17.533 0.508944 17.8455 0.821504C18.1581 1.13406 18.3337 1.55798 18.3337 2.00001V6.66668C18.3302 6.93082 18.2238 7.18317 18.037 7.36997C17.8502 7.55676 17.5978 7.66322 17.3337 7.66668Z" fill="black"/>
<path d="M16.667 23.6667H7.33366C6.89163 23.6667 6.46771 23.4911 6.15515 23.1785C5.84259 22.866 5.66699 22.442 5.66699 22V12.6667C5.66699 12.2247 5.84259 11.8007 6.15515 11.4881C6.46771 11.1756 6.89163 11 7.33366 11H16.667C17.109 11 17.533 11.1756 17.8455 11.4881C18.1581 11.8007 18.3337 12.2247 18.3337 12.6667V22C18.3337 22.442 18.1581 22.866 17.8455 23.1785C17.533 23.4911 17.109 23.6667 16.667 23.6667ZM7.66699 21.6667H16.3337V13H7.66699V21.6667Z" fill="black"/>
</mask>
<g mask="url(#mask0_688_1323)">
<rect width="24" height="24" fill="#999999"/>
</g>
</g>
<defs>
<clipPath id="clip0_688_1323">
<rect width="24" height="24" fill="white"/>
</clipPath>
</defs>
</svg>
