<svg width="14" height="14" viewBox="0 0 14 14" fill="none" xmlns="http://www.w3.org/2000/svg">
<g clip-path="url(#clip0_10_3239)">
<path d="M13.9999 13.1755L10.347 9.52269C11.2959 8.36221 11.7624 6.88141 11.6501 5.3866C11.5378 3.8918 10.8552 2.49734 9.74363 1.49166C8.63201 0.485992 7.17638 -0.0539518 5.67783 -0.0164832C4.17928 0.0209854 2.75245 0.633 1.69248 1.69297C0.632511 2.75294 0.0204971 4.17976 -0.0169715 5.67832C-0.05444 7.17687 0.485504 8.6325 1.49118 9.74412C2.49685 10.8557 3.89131 11.5383 5.38612 11.6506C6.88093 11.7629 8.36172 11.2964 9.52221 10.3475L13.175 14.0004L13.9999 13.1755ZM5.83321 10.5004C4.91023 10.5004 4.00797 10.2267 3.24054 9.71389C2.47312 9.20111 1.87498 8.47227 1.52177 7.61955C1.16856 6.76683 1.07614 5.82852 1.25621 4.92327C1.43627 4.01803 1.88073 3.18651 2.53337 2.53386C3.18602 1.88122 4.01754 1.43676 4.92278 1.2567C5.82803 1.07663 6.76634 1.16905 7.61906 1.52226C8.47178 1.87547 9.20062 2.4736 9.7134 3.24103C10.2262 4.00846 10.4999 4.91071 10.4999 5.83369C10.4985 7.07094 10.0064 8.25712 9.1315 9.13199C8.25663 10.0069 7.07046 10.499 5.83321 10.5004Z" fill="#374957"/>
</g>
<defs>
<clipPath id="clip0_10_3239">
<rect width="14" height="14" fill="white"/>
</clipPath>
</defs>
</svg>
