<svg width="24" height="24" viewBox="0 0 24 24" fill="none" xmlns="http://www.w3.org/2000/svg">
<mask id="mask0_688_1314" style="mask-type:alpha" maskUnits="userSpaceOnUse" x="0" y="0" width="24" height="24">
<g clip-path="url(#clip0_688_1314)">
<path fill-rule="evenodd" clip-rule="evenodd" d="M18.5303 8.75596C19.4375 7.84878 19.4375 6.37787 18.5303 5.47065C17.6231 4.56341 16.1521 4.56341 15.2449 5.47065C14.3376 6.37787 14.3376 7.84878 15.2449 8.75596C16.1521 9.66325 17.6231 9.66325 18.5303 8.75596ZM17.5627 6.43818C17.9356 6.81105 17.9356 7.4156 17.5627 7.78847C17.1899 8.16135 16.5853 8.16135 16.2125 7.78847C15.8395 7.4156 15.8395 6.81105 16.2125 6.43818C16.5853 6.06531 17.1899 6.06531 17.5627 6.43818Z" fill="black"/>
<path fill-rule="evenodd" clip-rule="evenodd" d="M1.35838 11.9805C0.690435 12.6483 0.690438 13.7313 1.35838 14.3992L9.60105 22.6419C10.2689 23.3098 11.3519 23.3098 12.0198 22.6419L22.6422 12.0195C22.963 11.6988 23.1431 11.2638 23.1431 10.8102V2.56752C23.1431 1.62291 22.3774 0.857147 21.4328 0.857147H13.1901C12.7365 0.857147 12.3015 1.03734 11.9807 1.3581L1.35838 11.9805ZM11.4166 20.8264C11.0818 21.1611 10.5391 21.1611 10.2043 20.8264L3.17388 13.7959C2.83915 13.4612 2.83915 12.9185 3.17388 12.5837L12.939 2.81857C13.0998 2.65782 13.3178 2.56752 13.5452 2.56752H20.5756C21.049 2.56752 21.4328 2.95128 21.4328 3.42466V10.4551C21.4328 10.6825 21.3424 10.9005 21.1817 11.0612L11.4166 20.8264Z" fill="black"/>
</g>
</mask>
<g mask="url(#mask0_688_1314)">
<rect width="24" height="24" fill="#999999"/>
</g>
<defs>
<clipPath id="clip0_688_1314">
<rect width="24" height="24" fill="white"/>
</clipPath>
</defs>
</svg>
